<svg width="32" height="32" viewBox="0 0 32 32" fill="none" xmlns="http://www.w3.org/2000/svg">
  <rect width="32" height="32" rx="4" fill="url(#paint0_linear)" />
  <path d="M9.33 22.67L12.67 9.33H14.33L11 22.67H9.33Z" fill="white" />
  <path d="M15.33 9.33H19.33C20.22 9.33 20.89 9.56 21.33 10C21.78 10.44 22 11.11 22 12C22 12.89 21.78 13.56 21.33 14C20.89 14.44 20.22 14.67 19.33 14.67H16.67L16 17.33H19.33C20.22 17.33 20.89 17.56 21.33 18C21.78 18.44 22 19.11 22 20C22 20.89 21.78 21.56 21.33 22C20.89 22.44 20.22 22.67 19.33 22.67H15.33V9.33Z" fill="white" />
  <defs>
    <linearGradient id="paint0_linear" x1="0" y1="0" x2="32" y2="32" gradientUnits="userSpaceOnUse">
      <stop stopColor="#3b82f6" />
      <stop offset="1" stopColor="#8b5cf6" />
    </linearGradient>
  </defs>
</svg>